HIERARCHY
ROOT Hips
{
	OFFSET 0.000000 0.000000 0.000000
	CHANNELS 6 Xposition Yposition Zposition Xrotation Yrotation Zrotation
	JOINT LeftUpLeg_virtual
	{
		OFFSET 0.000000 0.000000 0.000000
		CHANNELS 3 Xrotation Yrotation Zrotation
		JOINT LeftUpLeg
		{
			OFFSET 15.427100 -6.655098 0.678600
			CHANNELS 3 Xrotation Yrotation Zrotation
			JOINT LeftLeg
			{
				OFFSET 4.081073 -39.591068 13.024000
				CHANNELS 3 Xrotation Yrotation Zrotation
				JOINT LeftFoot
				{
					OFFSET -4.081074 -37.707932 -15.979700
					CHANNELS 3 Xrotation Yrotation Zrotation
					JOINT LeftToeBase
					{
						OFFSET 5.346399 -15.068900 20.645000
						CHANNELS 3 Xrotation Yrotation Zrotation
						JOINT LeftToe_End
						{
							OFFSET 2.754700 0.931300 11.300900
							CHANNELS 3 Xrotation Yrotation Zrotation
							End Site
							{
								OFFSET 0 0 0
							}
						}
					}
				}
			}
		}
	}
	JOINT RightUpLeg_virtual
	{
		OFFSET 0.000000 0.000000 0.000000
		CHANNELS 3 Xrotation Yrotation Zrotation
		JOINT RightUpLeg
		{
			OFFSET -15.569500 -6.655098 0.678600
			CHANNELS 3 Xrotation Yrotation Zrotation
			JOINT RightLeg
			{
				OFFSET -4.081825 -39.591045 13.023800
				CHANNELS 3 Xrotation Yrotation Zrotation
				JOINT RightFoot
				{
					OFFSET 4.081824 -37.707954 -15.979600
					CHANNELS 3 Xrotation Yrotation Zrotation
					JOINT RightToeBase
					{
						OFFSET -5.346400 -15.068900 20.645000
						CHANNELS 3 Xrotation Yrotation Zrotation
						JOINT RightToe_End
						{
							OFFSET -2.754700 0.931300 11.300900
							CHANNELS 3 Xrotation Yrotation Zrotation
							End Site
							{
								OFFSET 0 0 0
							}
						}
					}
				}
			}
		}
	}
	JOINT Spine_virtual
	{
		OFFSET 0.000000 0.000000 0.000000
		CHANNELS 3 Xrotation Yrotation Zrotation
		JOINT Spine
		{
			OFFSET -0.279200 12.230698 -2.892100
			CHANNELS 3 Xrotation Yrotation Zrotation
			JOINT Spine1
			{
				OFFSET -0.232667 10.192268 -1.242267
				CHANNELS 3 Xrotation Yrotation Zrotation
				JOINT Spine1_split
				{
					OFFSET -0.232667 10.192268 -1.242267
					CHANNELS 3 Xrotation Yrotation Zrotation
					JOINT Spine2
					{
						OFFSET -0.232667 10.192268 -1.242267
						CHANNELS 3 Xrotation Yrotation Zrotation
						JOINT Neck_virtual
						{
							OFFSET 0.000000 0.000000 0.000000
							CHANNELS 3 Xrotation Yrotation Zrotation
							JOINT Neck
							{
								OFFSET -0.418800 17.814194 8.416900
								CHANNELS 3 Xrotation Yrotation Zrotation
								JOINT Head
								{
									OFFSET 0.000000 7.031097 3.806800
									CHANNELS 3 Xrotation Yrotation Zrotation
									JOINT HeadTop_End
									{
										OFFSET 0.000000 24.646606 12.978600
										CHANNELS 3 Xrotation Yrotation Zrotation
										End Site
										{
											OFFSET 0 0 0
										}
									}
								}
							}
						}
						JOINT LeftShoulder_virtual
						{
							OFFSET 0.000000 0.000000 0.000000
							CHANNELS 3 Xrotation Yrotation Zrotation
							JOINT LeftShoulder
							{
								OFFSET 8.476499 7.247704 -3.868750
								CHANNELS 3 Xrotation Yrotation Zrotation
								JOINT LeftShoulder_split
								{
									OFFSET 8.476499 7.247704 -3.868750
									CHANNELS 3 Xrotation Yrotation Zrotation
									JOINT LeftArm
									{
										OFFSET 9.308998 -2.777710 0.208600
										CHANNELS 3 Xrotation Yrotation Zrotation
										JOINT LeftForeArm
										{
											OFFSET 29.972298 0.000000 0.000000
											CHANNELS 3 Xrotation Yrotation Zrotation
											JOINT LeftHand
											{
												OFFSET 26.026505 0.000000 0.000000
												CHANNELS 3 Xrotation Yrotation Zrotation
												End Site
												{
													OFFSET 0 0 0
												}
											}
										}
									}
								}
							}
						}
						JOINT RightShoulder_virtual
						{
							OFFSET 0.000000 0.000000 0.000000
							CHANNELS 3 Xrotation Yrotation Zrotation
							JOINT RightShoulder
							{
								OFFSET -7.570500 7.247704 -3.868750
								CHANNELS 3 Xrotation Yrotation Zrotation
								JOINT RightShoulder_split
								{
									OFFSET -7.570500 7.247704 -3.868750
									CHANNELS 3 Xrotation Yrotation Zrotation
									JOINT RightArm
									{
										OFFSET -9.308998 -2.777710 0.208500
										CHANNELS 3 Xrotation Yrotation Zrotation
										JOINT RightForeArm
										{
											OFFSET -29.972300 0.000000 0.000000
											CHANNELS 3 Xrotation Yrotation Zrotation
											JOINT RightHand
											{
												OFFSET -26.026505 0.000000 0.000000
												CHANNELS 3 Xrotation Yrotation Zrotation
												End Site
												{
													OFFSET 0 0 0
												}
											}
										}
									}
								}
							}
						}
					}
				}
			}
		}
	}
}
MOTION
Frames: 10
Frame Time: 0.03333333
3.422234 44.265415 -0.625336 0.000000 0.000000 0.000000 1.649830 -32.431736 8.109928 -71.417585 -15.028115 52.341321 66.537777 9.387244 -6.734118 37.735228 -1.365471 -4.782288 -4.545416 0.211280 -2.212048 0.000000 0.000000 0.000000 -3.088456 -27.200740 8.001326 -15.327040 0.268346 -23.839602 101.200065 5.926304 -0.971056 33.195659 7.891457 14.022913 49.511351 -0.255710 -5.801870 0.000000 0.000000 0.000000 -1.151476 -32.393876 8.197731 1.729192 -1.667152 -6.594680 1.809417 -1.285241 -3.446930 0.884875 1.180969 -0.270456 0.000000 0.000000 0.000000 1.715631 -1.535869 -2.981616 -4.402264 0.676973 4.276880 3.136642 20.219016 3.135543 0.000000 0.000000 0.000000 1.192927 -0.917475 -3.058762 0.510227 3.795230 2.358020 -3.265285 -0.287627 -0.042056 0.330292 -13.765775 -55.283596 -15.830799 -88.876908 -14.912816 0.000000 0.000000 0.000000 2.451837 -1.381558 -3.456940 4.658663 17.216597 8.309899 -1.500762 3.601137 0.693811 11.153296 21.401167 34.791655 179.286756 53.120772 -179.124908 0.000000 0.000000 0.000000 
3.396213 44.279339 -0.634705 0.000000 0.000000 0.000000 1.659464 -32.392244 8.121315 -71.401541 -15.016121 52.339094 66.539006 9.405899 -6.743695 37.742413 -1.356917 -4.793381 -4.546019 0.210025 -2.212837 0.000000 0.000000 0.000000 -3.073131 -27.165565 8.006403 -15.321783 0.285180 -23.872385 101.238409 5.898785 -0.977666 33.130888 7.851000 14.027873 49.540206 -0.260713 -5.802431 0.000000 0.000000 0.000000 -1.123386 -32.360774 8.215310 1.738304 -1.671153 -6.606013 1.817679 -1.293381 -3.456540 0.915596 1.140400 -0.262739 0.000000 0.000000 0.000000 1.724151 -1.542671 -2.988854 -4.403372 0.679411 4.279473 3.149482 20.230701 3.120303 0.000000 0.000000 0.000000 1.196297 -0.925434 -3.064124 0.499217 3.803800 2.360364 -3.261330 -0.339321 -0.013936 0.315133 -13.762876 -55.251719 -17.508365 -88.921714 -16.579243 0.000000 0.000000 0.000000 2.455018 -1.391426 -3.461340 4.665494 17.199429 8.299885 -1.503670 3.574125 0.678944 11.105643 21.347259 34.775553 179.301031 53.102323 -179.135153 0.000000 0.000000 0.000000 
3.359861 44.304657 -0.659191 0.000000 0.000000 0.000000 1.678306 -32.346328 8.138294 -71.343300 -15.013102 52.336693 66.493080 9.437709 -6.768200 37.737307 -1.345684 -4.816443 -4.563024 0.207275 -2.221436 0.000000 0.000000 0.000000 -3.051936 -27.125564 8.017689 -15.323447 0.282384 -23.921640 101.289977 5.830907 -0.955483 33.009068 7.735627 13.990066 49.616642 -0.260299 -5.810239 0.000000 0.000000 0.000000 -1.075500 -32.312163 8.247643 1.756772 -1.681911 -6.627179 1.829313 -1.300637 -3.470843 0.933539 1.132333 -0.241203 0.000000 0.000000 0.000000 1.738161 -1.546972 -3.003327 -4.382963 0.680027 4.300574 3.145372 20.242948 3.123719 0.000000 0.000000 0.000000 1.202291 -0.931275 -3.075848 0.494069 3.815867 2.364160 -3.226106 -0.392905 -0.012823 0.247848 -13.707809 -55.200868 -21.219400 -89.056432 -20.269578 0.000000 0.000000 0.000000 2.464679 -1.399901 -3.472663 4.669010 17.194387 8.304127 -1.497221 3.576352 0.691611 11.034841 21.218645 34.754489 179.321958 53.078636 -179.154414 0.000000 0.000000 0.000000 
3.317701 44.333168 -0.692905 0.000000 0.000000 0.000000 1.708174 -32.299743 8.160467 -71.254357 -15.020728 52.337899 66.409130 9.482884 -6.812708 37.716810 -1.329364 -4.845467 -4.574774 0.203221 -2.240997 0.000000 0.000000 0.000000 -3.028865 -27.090424 8.038071 -15.363542 0.272913 -23.985077 101.342583 5.759507 -0.928826 32.909545 7.614049 13.966372 49.696815 -0.253252 -5.826119 0.000000 0.000000 0.000000 -1.020427 -32.263123 8.287342 1.778304 -1.696806 -6.653450 1.840493 -1.306780 -3.487367 0.922650 1.145389 -0.224645 0.000000 0.000000 0.000000 1.754986 -1.548556 -3.022495 -4.341934 0.682547 4.330551 3.121254 20.254979 3.135489 0.000000 0.000000 0.000000 1.208076 -0.934699 -3.091043 0.494603 3.831684 2.355808 -3.173353 -0.445539 -0.044940 0.156714 -13.607954 -55.140575 -28.176364 -89.250874 -27.199347 0.000000 0.000000 0.000000 2.476970 -1.405201 -3.488217 4.670591 17.199769 8.313223 -1.490101 3.611676 0.716523 10.952994 21.071327 34.722196 179.337518 53.076867 -179.171763 0.000000 0.000000 0.000000 
3.272788 44.361717 -0.728252 0.000000 0.000000 0.000000 1.748288 -32.263420 8.185402 -71.147806 -15.048379 52.342475 66.310454 9.533511 -6.874935 37.698024 -1.316066 -4.891489 -4.566002 0.198940 -2.270053 0.000000 0.000000 0.000000 -2.990327 -27.062424 8.072332 -15.439187 0.284600 -24.049395 101.381857 5.733514 -0.932954 32.884257 7.578572 14.019739 49.703532 -0.239552 -5.848300 0.000000 0.000000 0.000000 -0.972471 -32.233428 8.326359 1.799746 -1.714456 -6.679727 1.848839 -1.311283 -3.502992 0.912411 1.159405 -0.224007 0.000000 0.000000 0.000000 1.770625 -1.549276 -3.040981 -4.283217 0.692966 4.352277 3.076695 20.273916 3.140050 0.000000 0.000000 0.000000 1.211702 -0.936947 -3.105254 0.500302 3.850363 2.319158 -3.118641 -0.492032 -0.100292 0.074087 -13.482068 -55.074404 -40.616116 -89.453560 -39.611887 0.000000 0.000000 0.000000 2.487300 -1.408120 -3.503591 4.672236 17.213561 8.320137 -1.483467 3.665308 0.741733 10.868037 20.958167 34.678387 179.336165 53.109283 -179.174153 0.000000 0.000000 0.000000 
3.228478 44.384235 -0.757500 0.000000 0.000000 0.000000 1.789503 -32.250193 8.210199 -71.032676 -15.093869 52.346597 66.217557 9.586120 -6.947668 37.689032 -1.307465 -4.956669 -4.551507 0.193704 -2.297776 0.000000 0.000000 0.000000 -2.946594 -27.051663 8.111387 -15.518446 0.320538 -24.080826 101.393236 5.753552 -0.970919 32.942235 7.641336 14.140024 49.627331 -0.220376 -5.868933 0.000000 0.000000 0.000000 -0.947895 -32.226970 8.357318 1.818715 -1.732279 -6.702191 1.852566 -1.315903 -3.513681 0.903644 1.174838 -0.238846 0.000000 0.000000 0.000000 1.780898 -1.552084 -3.053544 -4.217054 0.715635 4.351807 3.016977 20.307493 3.124593 0.000000 0.000000 0.000000 1.211760 -0.939556 -3.114948 0.510246 3.868976 2.240329 -3.078376 -0.531238 -0.151506 0.031256 -13.339127 -55.003585 -60.545392 -89.599432 -59.517039 0.000000 0.000000 0.000000 2.493494 -1.410129 -3.514669 4.678079 17.234750 8.319419 -1.483804 3.717765 0.773000 10.792548 20.925384 34.632122 179.313038 53.168177 -179.153881 0.000000 0.000000 0.000000 
3.184772 44.401215 -0.784611 0.000000 0.000000 0.000000 1.815491 -32.263307 8.231133 -70.913298 -15.149510 52.348551 66.147295 9.645176 -7.022033 37.687720 -1.296516 -5.026552 -4.555704 0.187814 -2.318717 0.000000 0.000000 0.000000 -2.918147 -27.065265 8.140754 -15.568971 0.356156 -24.048164 101.358300 5.777921 -1.013927 33.040108 7.741149 14.260463 49.534786 -0.196868 -5.872352 0.000000 0.000000 0.000000 -0.953182 -32.237523 8.374395 1.834705 -1.747719 -6.717278 1.849969 -1.321179 -3.516001 0.906247 1.179187 -0.251819 0.000000 0.000000 0.000000 1.783732 -1.556969 -3.056805 -4.153152 0.754894 4.317477 2.950431 20.364339 3.083602 0.000000 0.000000 0.000000 1.207412 -0.943718 -3.116786 0.523384 3.888827 2.117632 -3.047056 -0.547359 -0.183486 0.030905 -13.184741 -54.934289 -81.891414 -89.661956 -80.846723 0.000000 0.000000 0.000000 2.495547 -1.411496 -3.517519 4.689093 17.259330 8.312139 -1.499085 3.770013 0.814968 10.732637 20.981356 34.579967 179.277057 53.236366 -179.115291 0.000000 0.000000 0.000000 
3.145145 44.416733 -0.803059 0.000000 0.000000 0.000000 1.812855 -32.298902 8.240782 -70.791482 -15.210661 52.350641 66.113308 9.708489 -7.083365 37.697545 -1.283315 -5.101280 -4.591432 0.182132 -2.333436 0.000000 0.000000 0.000000 -2.914765 -27.093223 8.152848 -15.564273 0.372077 -23.946058 101.279698 5.770965 -1.034658 33.099759 7.811312 14.317292 49.485567 -0.171244 -5.849697 0.000000 0.000000 0.000000 -0.980190 -32.261869 8.379895 1.849435 -1.759493 -6.723967 1.838997 -1.326698 -3.508869 0.915518 1.169752 -0.256911 0.000000 0.000000 0.000000 1.778386 -1.563074 -3.049503 -4.102925 0.806370 4.249859 2.890332 20.447686 3.021053 0.000000 0.000000 0.000000 1.197251 -0.949094 -3.109198 0.539298 3.908807 1.957875 -3.013942 -0.550362 -0.181438 0.065904 -13.019806 -54.873651 -94.603168 -89.685343 -93.549618 0.000000 0.000000 0.000000 2.491547 -1.413513 -3.510681 4.702698 17.283310 8.305942 -1.512722 3.833045 0.860138 10.679311 21.092985 34.535100 179.242974 53.309886 -179.071058 0.000000 0.000000 0.000000 
3.112160 44.431805 -0.803333 0.000000 0.000000 0.000000 1.786136 -32.344836 8.237679 -70.671817 -15.262357 52.361490 66.113663 9.774333 -7.124463 37.711018 -1.266257 -5.170400 -4.653026 0.176541 -2.346822 0.000000 0.000000 0.000000 -2.934795 -27.125219 8.147015 -15.501726 0.349797 -23.805168 101.174595 5.721090 -1.021986 33.098629 7.819842 14.286487 49.456966 -0.146176 -5.814591 0.000000 0.000000 0.000000 -1.018990 -32.284761 8.378321 1.863834 -1.764043 -6.721853 1.820891 -1.330682 -3.494131 0.925599 1.153782 -0.260540 0.000000 0.000000 0.000000 1.763844 -1.566870 -3.033893 -4.077218 0.861883 4.162669 2.846130 20.551491 2.950476 0.000000 0.000000 0.000000 1.181739 -0.953715 -3.094157 0.557206 3.930336 1.780903 -2.971935 -0.547220 -0.146069 0.114613 -12.844178 -54.838749 -98.953889 -89.704590 -97.899772 0.000000 0.000000 0.000000 2.480813 -1.413801 -3.495633 4.716589 17.309492 8.304598 -1.505014 3.893701 0.900168 10.637274 21.216000 34.496615 179.220598 53.398911 -179.032591 0.000000 0.000000 0.000000 
3.081048 44.451931 -0.785175 0.000000 0.000000 0.000000 1.749901 -32.395369 8.222818 -70.563524 -15.301118 52.391946 66.139584 9.833121 -7.144056 37.726512 -1.252253 -5.230040 -4.728160 0.171495 -2.357529 0.000000 0.000000 0.000000 -2.967130 -27.165442 8.128080 -15.402956 0.295685 -23.664056 101.074369 5.636460 -0.982109 33.062572 7.770643 14.185139 49.406389 -0.123591 -5.790295 0.000000 0.000000 0.000000 -1.063425 -32.295440 8.368665 1.880227 -1.760248 -6.709461 1.797403 -1.329093 -3.476141 0.934469 1.129807 -0.264780 0.000000 0.000000 0.000000 1.742467 -1.565460 -3.014867 -4.083925 0.906905 4.075460 2.823325 20.654043 2.894175 0.000000 0.000000 0.000000 1.161079 -0.954111 -3.076080 0.574850 3.953831 1.618372 -2.909293 -0.563738 -0.100422 0.155017 -12.663319 -54.847932 -102.107182 -89.720935 -101.061781 0.000000 0.000000 0.000000 2.464059 -1.409337 -3.475670 4.726590 17.335707 8.312508 -1.479488 3.949976 0.923284 10.611023 21.304011 34.455422 179.213222 53.516940 -179.005229 0.000000 0.000000 0.000000 
